<?xml version="1.0" encoding="UTF-8" standalone="no"?>
<svg
   xmlns:dc="http://purl.org/dc/elements/1.1/"
   xmlns:cc="http://creativecommons.org/ns#"
   xmlns:rdf="http://www.w3.org/1999/02/22-rdf-syntax-ns#"
   xmlns:svg="http://www.w3.org/2000/svg"
   xmlns="http://www.w3.org/2000/svg"
   xmlns:sodipodi="http://sodipodi.sourceforge.net/DTD/sodipodi-0.dtd"
   xmlns:inkscape="http://www.inkscape.org/namespaces/inkscape"
   inkscape:export-ydpi="96"
   inkscape:export-xdpi="96"
   inkscape:export-filename="/tmp/bitmap.png"
   sodipodi:docname="logo.svg"
   inkscape:version="1.0 (unknown)"
   id="svg16"
   version="1.1"
   viewBox="0 0 338.66666 169.33334"
   height="480pt"
   width="960pt">
  <defs
     id="defs10">
    <rect
       x="158.75"
       y="98.777778"
       width="156.98611"
       height="45.861111"
       id="rect35" />
  </defs>
  <sodipodi:namedview
     inkscape:window-maximized="1"
     inkscape:window-y="0"
     inkscape:window-x="2560"
     inkscape:window-height="1411"
     inkscape:window-width="2560"
     inkscape:guide-bbox="true"
     fit-margin-bottom="40"
     fit-margin-right="40"
     fit-margin-left="40"
     lock-margins="true"
     fit-margin-top="40"
     showguides="true"
     borderlayer="false"
     inkscape:pagecheckerboard="true"
     units="pt"
     showgrid="true"
     inkscape:document-rotation="0"
     inkscape:current-layer="layer1"
     inkscape:document-units="pt"
     inkscape:cy="362.21061"
     inkscape:cx="705.73509"
     inkscape:zoom="1.4"
     inkscape:pageshadow="2"
     inkscape:pageopacity="0.0"
     borderopacity="1.0"
     bordercolor="#666666"
     pagecolor="#ffffff"
     id="base">
    <inkscape:grid
       dotted="false"
       spacingy="0.35277778"
       spacingx="0.35277778"
       units="pt"
       id="grid18"
       type="xygrid" />
    <sodipodi:guide
       id="guide84"
       orientation="0,-1"
       position="23.080657,151.68269" />
    <sodipodi:guide
       id="guide86"
       orientation="1,0"
       position="17.638889,144.63889" />
    <sodipodi:guide
       id="guide88"
       orientation="0,-1"
       position="17.638888,19.402779" />
    <sodipodi:guide
       id="guide90"
       orientation="1,0"
       position="321.02777,21.166668" />
    <sodipodi:guide
       position="29.98611,74.083337"
       orientation="0,-1"
       id="guide27" />
    <sodipodi:guide
       position="24.694444,19.40278"
       orientation="0,-1"
       id="guide29" />
    <sodipodi:guide
       position="153.45833,93.486115"
       orientation="1,0"
       id="guide31" />
    <sodipodi:guide
       position="10.583333,33.513891"
       orientation="0,-1"
       id="guide39" />
  </sodipodi:namedview>
  <metadata
     id="metadata13">
    <rdf:RDF>
      <cc:Work
         rdf:about="">
        <dc:format>image/svg+xml</dc:format>
        <dc:type
           rdf:resource="http://purl.org/dc/dcmitype/StillImage" />
        <dc:title />
      </cc:Work>
    </rdf:RDF>
  </metadata>
  <g
     id="layer1"
     inkscape:groupmode="layer"
     inkscape:label="Layer 1">
    <path
       style="stroke-width:0.0443501"
       d="m 148.91241,31.977523 4.04166,-10.32745 -0.17417,-0.638274 -39.97449,10.465918 c 4.2605,-6.090933 2.79567,-10.963556 2.79567,-10.963556 0,0 -12.76363,8.067991 -22.418951,7.871634 C 83.526797,28.193851 80.418513,25.658828 65.613969,30.344019 50.809433,35.029201 46.62932,49.320813 42.337573,52.399271 38.045817,55.47772 24.581053,65.502644 24.581053,65.502644 l 0.03125,0.18052 12.138385,-3.834194 c 0,0 -3.327112,3.102938 -10.401136,12.515992 0,0 -0.125045,-0.10986 -0.330485,-0.303229 l 0.0093,0.06602 c 0,0 5.685118,8.559337 11.263055,6.958145 0.558248,-0.159687 1.192405,-0.425216 1.884626,-0.77456 2.246362,1.228681 5.176006,2.438373 8.413796,2.762168 0,0 -2.192763,-2.50604 -4.019325,-5.360758 0.495711,-0.313698 1.000368,-0.640641 1.513944,-0.971996 l -0.23669,0.167843 4.622232,1.664324 -0.509121,-4.28437 c 0.01339,-0.0092 0.03125,-0.01767 0.04464,-0.0265 l 4.541848,1.63365 -0.567175,-3.896672 c 0.576104,-0.29625 1.152208,-0.579284 1.723848,-0.844696 L 59.437931,53.47909 79.016542,40.266336 77.4624,44.132052 C 73.501125,53.76346 66.043032,56.055516 66.043032,56.055516 l -3.112754,1.169008 c -2.313344,2.700107 -3.286916,3.36712 -4.081852,12.423984 1.866759,-0.466218 3.64866,-0.579912 5.260864,-0.155946 8.369144,2.202908 11.263059,12.142017 9.01223,14.89925 -0.562702,0.688208 -1.906947,1.871265 -3.603999,3.253233 l -3.394095,0.0068 -0.04464,2.713155 c -0.116117,0.0883 -0.232224,0.181041 -0.348342,0.269357 l -3.452164,0.007 -0.04464,2.647086 c -0.308146,0.229642 -0.607363,0.454864 -0.90658,0.675683 -3.246728,0.07258 -7.355385,-2.71144 -7.355385,-2.71144 0,2.536884 2.143647,6.447998 2.143647,6.447998 0,0 0.138448,-0.06626 0.379601,-0.181345 -0.209894,0.150172 -0.326012,0.234086 -0.326012,0.234086 0,0 8.690692,5.694885 14.16145,3.569795 4.863391,-1.890455 17.457298,-11.71102 28.327368,-16.366261 l 32.896001,-8.615061 4.33642,-11.08999 -25.06723,6.564487 V 61.86265 l 29.41257,-7.70076 4.33642,-11.089981 -33.74454,8.836987 v -9.95374 z m -59.704961,21.221371 7.80644,-2.046116 0.10272,0.382963 -2.43393,6.228202 -8.09226,2.117163 z m 2.69742,13.308796 -8.092254,2.117172 2.617034,-6.686615 7.80644,-2.046123 0.10271,0.382971 z m 10.539581,-2.254219 -8.092261,2.117161 2.61704,-6.686613 7.806441,-2.046116 0.10272,0.382963 z"
       id="path4" />
    <g
       transform="matrix(0.04465925,0,0,0.04465925,17.764839,1.7230845)"
       id="g20">
      <path
         d="m 146,2372.6 5.3,-26.5 c 14.6,-76.8 43.7,-143.1 98.1,-193.4 39.7,-37.1 98,-59.6 164.3,-59.6 42.4,0 74.2,6.6 94.1,13.2 l -37.1,127.2 c -15.9,-5.3 -30.5,-7.9 -51.7,-7.9 -59.6,0 -94.1,62.3 -104.7,119.2 l -5.3,27.8 h 125.9 l -22.5,116.6 H 289.1 l -102,531.3 H 21.5 l 102,-531.3"
         id="path6" />
      <path
         d="m 687.9,3020.5 c 1.3,-34.4 4,-70.2 5.3,-108.6 h -4 c -51.7,86.1 -113.9,119.3 -165.6,119.3 -94.1,0 -140.4,-80.8 -140.4,-194.8 0,-196.1 98,-474.3 376.3,-474.3 64.9,0 129.8,10.6 169.6,26.5 L 857.6,2749 c -15.9,75.5 -27.8,201.4 -26.5,271.6 H 687.9 Z m 59.6,-531.3 c -13.2,-2.7 -25.2,-4 -34.4,-4 -108.6,0 -166.9,216 -168.3,311.3 0,57 8,98 49,98 45,0 87.4,-74.2 111.3,-192.1 z"
         id="path8" />
      <path
         d="m 948.9,2878.7 c 26.5,14.6 58.3,27.8 104.7,26.5 47.7,-1.3 74.2,-31.8 74.2,-72.9 0,-35.8 -17.2,-60.9 -62.3,-96.7 -55.6,-45 -82.1,-102 -82.1,-157.7 0,-119.3 92.7,-215.9 239.8,-215.9 57,0 98,10.6 121.9,23.8 l -35.8,120.6 c -18.5,-10.6 -49,-19.9 -76.8,-19.9 -53,0 -86.1,27.8 -86.1,71.5 0,33.1 18.5,53 49,78.2 72.9,55.7 96.7,119.2 96.7,169.6 0,143.1 -99.4,222.6 -247.8,222.6 -59.6,0 -112.6,-17.2 -135.1,-33.1 z"
         id="path10" />
      <path
         d="m 1680.2,2197.7 -33.1,174.9 h 254.4 l -21.2,116.6 h -255.7 l -57,300.7 c -4,22.5 -5.3,42.4 -5.3,54.3 0,39.7 19.9,54.3 50.4,54.3 11.9,0 29.2,0 45,-2.7 l -19.9,124.5 c -30.5,8 -67.6,10.6 -99.4,10.6 -99.3,0 -148.4,-55.7 -148.4,-143.1 0,-29.1 5.3,-64.9 11.9,-96.7 l 57,-302.1 h -75.5 l 22.5,-116.6 h 75.5 l 26.5,-133.8 z"
         id="path12" />
      <path
         d="m 1720,3020.5 124.5,-647.9 h 165.6 l -124.5,647.9 z M 1875,2207 c 0,-47.7 34.4,-102 92.7,-102 54.3,0 79.5,41.1 78.2,86.1 -1.3,66.2 -46.4,103.3 -95.4,103.3 -53,0 -76.9,-38.4 -75.5,-87.4 z"
         id="path14" />
      <path
         d="m 2113,2372.6 5.3,-26.5 c 14.6,-76.8 43.7,-143.1 98.1,-193.4 39.7,-37.1 98,-59.6 164.3,-59.6 42.4,0 74.2,6.6 94.1,13.2 l -37.1,127.2 c -15.9,-5.3 -30.5,-7.9 -51.7,-7.9 -59.6,0 -94.1,62.3 -104.7,119.2 l -5.3,27.8 h 192.1 l -22.5,116.6 h -189.5 l -102,531.3 h -165.6 l 102,-531.3"
         id="path16" />
      <path
         d="m 2571.4,2372.6 4,311.3 c 1.3,60.9 2.7,106 1.3,153.7 h 2.7 c 13.2,-53 26.5,-96.7 49,-165.6 l 98.1,-299.4 h 166.9 l -212,510.1 c -63.6,148.4 -136.5,272.9 -216,345.8 -38.4,35.8 -83.5,63.6 -111.3,75.5 l -66.2,-135.1 c 29.1,-14.6 59.6,-31.8 86.1,-53 37.1,-30.5 72.9,-67.6 88.8,-103.4 2.6,-9.3 5.3,-15.9 4,-29.1 l -68.9,-610.8 z"
         id="path18" />
    </g>
    <rect
       id="rect25"
       width="167.56944"
       height="132.29167"
       x="153.45834"
       y="17.638889"
       style="stroke-width:0.41154" />
    <text
       xml:space="preserve"
       id="text33"
       style="font-style:normal;font-weight:normal;font-size:38.8056px;line-height:1.25;font-family:sans-serif;letter-spacing:0px;word-spacing:0px;white-space:pre;shape-inside:url(#rect35);fill:#000000;fill-opacity:1;stroke:none;"
       x="63.563068"
       y="0"
       transform="translate(1.6227955,-0.43456938)"><tspan
         x="163.15903"
         y="133.73166"><tspan
           style="font-style:normal;font-variant:normal;font-weight:bold;font-stretch:normal;font-size:35.2778px;font-family:'Nimbus Mono L';-inkscape-font-specification:'Nimbus Mono L Bold';text-align:center;text-anchor:middle;fill:#ffffff">Metrics</tspan></tspan></text>
    <rect
       style="fill:#ffffff;stroke-width:0.277564"
       id="rect43"
       width="22.930567"
       height="56.444447"
       x="156.63329"
       y="38.805557" />
    <rect
       y="65.263885"
       x="201.96524"
       height="29.986115"
       width="22.930567"
       id="rect43-5"
       style="fill:#ffffff;stroke-width:0.202307" />
    <rect
       y="19.402779"
       x="249.41383"
       height="75.847221"
       width="22.930567"
       id="rect43-0"
       style="fill:#ffffff;stroke-width:0.321753" />
    <rect
       style="fill:#ffffff;stroke-width:0.230144"
       id="rect43-0-6"
       width="22.930567"
       height="38.805557"
       x="294.92215"
       y="56.444447" />
    <path
       style="fill:#ff0000;stroke-width:0.264583"
       id="path153"
       d="m 158.34657,44.764387 c 4.24922,2.115286 8.37572,4.463333 12.49372,6.820469 4.26478,2.577238 8.61829,5.000109 12.97972,7.408516 2.93574,1.600933 5.86035,3.270816 8.98308,4.48968 0.62017,0.242068 1.25319,0.44985 1.87978,0.674775 3.55146,1.142487 7.26533,1.736672 10.98507,1.95534 0.74228,0.04363 1.48617,0.05349 2.22925,0.08024 3.03027,-0.0061 6.07435,-0.126868 9.08047,-0.533424 0.56312,-0.07616 1.12344,-0.171741 1.68516,-0.257611 2.03172,-0.363099 4.07578,-0.684544 6.08591,-1.158894 1.22672,-0.28948 1.61501,-0.425034 2.83486,-0.788807 3.15018,-0.979073 6.19785,-2.2556 9.17027,-3.679225 3.88587,-1.902973 7.6235,-4.082579 11.36647,-6.247456 2.86065,-1.675251 5.67228,-3.432198 8.45761,-5.229312 2.22874,-1.422212 4.34334,-3.010702 6.52129,-4.506796 0.90693,-0.622996 3.0329,-2.034334 3.9228,-2.627154 2.17197,-1.456558 4.38404,-2.857958 6.66954,-4.130874 0.0503,-0.02801 0.11742,-0.01005 0.16894,-0.03574 8.6951,-4.334669 -4.00368,1.876727 4.49968,-2.266548 2.20483,-1.055418 4.47167,-1.96955 6.77609,-2.782131 0.69657,-0.245618 1.39224,-0.495411 2.09912,-0.70952 1.63135,-0.494125 2.2878,-0.597294 3.91798,-0.940019 2.06814,-0.293217 4.1048,-0.886241 6.19517,-1.01395 0.11573,0.006 0.23148,0.01196 0.34721,0.01794 0,0 2.27073,-1.624134 2.27073,-1.624134 v 0 c -0.12771,-0.01215 -0.25545,-0.02432 -0.38317,-0.03646 -0.74112,0.03719 -1.44761,0.15712 -2.17802,0.292264 -1.39208,0.257575 -2.78006,0.536636 -4.17341,0.787522 -1.5454,0.323702 -2.42802,0.476385 -3.96499,0.937234 -0.71316,0.213825 -1.41359,0.468185 -2.11606,0.714851 -2.31182,0.811795 -4.58943,1.717164 -6.80312,2.770198 -0.74655,0.362146 -1.49799,0.71438 -2.23965,1.086443 -2.61622,1.312455 -3.91684,2.080083 -6.76661,3.705415 -2.28174,1.301369 -4.51689,2.682418 -6.692,4.15561 -0.8858,0.588923 -3.06548,2.033042 -3.96616,2.651128 -2.18176,1.497218 -4.30229,3.084332 -6.53848,4.502099 -2.79705,1.792587 -5.61961,3.545856 -8.48511,5.227326 0.26308,-0.149305 1.05316,-0.595733 0.78924,-0.447913 -2.51884,1.410806 -5.03347,2.82811 -7.62677,4.1002 -2.95598,1.438902 -5.9943,2.720726 -9.13437,3.704291 -1.14093,0.345443 -1.66566,0.522341 -2.8163,0.800867 -2.01397,0.487514 -4.06355,0.820563 -6.10091,1.190223 -3.5681,0.557382 -7.17301,0.875419 -10.7872,0.867006 -0.74337,-0.02172 -1.48746,-0.0258 -2.23011,-0.06517 -3.69779,-0.196096 -7.38438,-0.791761 -10.91501,-1.920714 -0.62279,-0.221599 -1.2521,-0.425675 -1.86837,-0.6648 -3.11966,-1.210482 -6.05571,-2.852703 -8.98214,-4.459036 -4.39645,-2.375977 -8.77722,-4.782466 -13.06882,-7.344553 -4.0837,-2.334266 -8.17407,-4.657585 -12.25049,-7.003791 0,0 -2.32189,1.534406 -2.32189,1.534406 z" />
  </g>
</svg>
